PathFileType	4	(X/Y/Z)	70_2_5_p0_0-412.trc
DataRate	CameraRate	NumFrames	NumMarkers	Units	OrigDataRate	OrigDataStartFrame	OrigNumFrames
59.0	59.0	6	27	m	59.0	206	413
Frame#	Time	RHip			RKnee			RAnkle			RBigToe			RSmallToe			RHeel			LHip			LKnee			LAnkle			LBigToe			LSmallToe			LHeel			Neck			Head			Nose			RShoulder			RElbow			RWrist			RThumb			RIndex			RPinky			LShoulder			LElbow			LWrist			LThumb			LIndex			LPinky			
		X1	Y1	Z1	X2	Y2	Z2	X3	Y3	Z3	X4	Y4	Z4	X5	Y5	Z5	X6	Y6	Z6	X7	Y7	Z7	X8	Y8	Z8	X9	Y9	Z9	X10	Y10	Z10	X11	Y11	Z11	X12	Y12	Z12	X13	Y13	Z13	X14	Y14	Z14	X15	Y15	Z15	X16	Y16	Z16	X17	Y17	Z17	X18	Y18	Z18	X19	Y19	Z19	X20	Y20	Z20	X21	Y21	Z21	X22	Y22	Z22	X23	Y23	Z23	X24	Y24	Z24	X25	Y25	Z25	X26	Y26	Z26	X27	Y27	Z27	
206	3.4915254237288136	0.3404964841620708	0.43064569998707536	0.04443414560660499	0.34904605508904074	0.6259437156049303	0.47142188064075813	0.37944393769298385	0.7953462241454679	0.8893089102116151	0.328483674590331	0.6563962232056485	1.007121672750171	0.39759741232048545	0.6486655438762239	0.9828612336102183	0.36316701027252096	0.9218669649924559	0.9704744836265365	0.12677218913230745	0.487880723437443	0.0452230532443912	0.1586741861949256	0.6381558579394755	0.4843574411390969	0.1631593574809356	0.809837230729287	0.8946561772546539	0.16319914477535274	0.6451268076200745	0.9897308522925801	0.11542041846554943	0.718072448515285	0.9765479076265059	0.1957355162295934	0.8865679728049188	0.9438832064853566	0.23573467304260762	0.42919138846514393	-0.5690177409054757	0.22647259645681134	0.31371827327928575	-0.7969170444421353	0.21076291245655585	0.2936143994391715	-0.6613605985397296	0.3979942675898063	0.38164502412746476	-0.5108655178488971	0.6433498063208388	0.20710359376230394	-0.5212456790249181	0.6483134587022231	0.012864835989489832	-0.6875383295428541	0.5714675914881847	-0.10769342100761334	-0.7671811392115993	0.6157310623551376	-0.11028323749280522	-0.797574044207919	0.6829637907527585	-0.08147894895583098	-0.789558782586358	0.06513790025003499	0.4588509636440738	-0.5239049287408084	-0.2268496030295834	0.4366094101993024	-0.5997462352724229	-0.2891139085473116	0.2584919413906581	-0.7690915948188483	-0.2703141059151337	0.10947921954441368	-0.8219433151732297	-0.2817089861158608	0.10799720477589807	-0.8552944187412677	-0.32833474584259464	0.21528754616879617	-0.8783823160570133
207	3.5084745762711864	0.34045066968950827	0.4303835930099015	0.04434203809043464	0.34923475353910954	0.6262346808175822	0.4713414926944124	0.3794267580674783	0.7951723066941447	0.8892165640046428	0.32800968670637415	0.6584441917805524	1.0118543053903886	0.3967191964539229	0.6470593036122868	0.9784070584872544	0.36333771064665243	0.922146863715424	0.9701770582522816	0.13416997546363604	0.4857451659843301	0.0448492868193969	0.16444946348256864	0.6509094171181213	0.48303439202142523	0.16320210260532914	0.8097618536794989	0.8945669623894236	0.16045214938126118	0.6608258306162775	0.9952670030310204	0.11542663724287656	0.7182181031828854	0.9765844726250456	0.1957608629354827	0.8859336536731383	0.9436225108242551	0.23094695918774105	0.42710378360577445	-0.5721566946334529	0.22578335079392442	0.3120889460196635	-0.8032918097149292	0.2060591321462082	0.2829571400562449	-0.6591852117213762	0.3919546987098509	0.36888696730443077	-0.5125378296877909	0.6456396629910099	0.24151782420520757	-0.4837219691769701	0.6403263603261602	-0.0005869354226511014	-0.6581502141071643	0.5633637527527732	-0.10761356544174662	-0.7213613419130773	0.6150609947298998	-0.12217744185716693	-0.7548312585802198	0.6860730744833919	-0.08122011877859023	-0.7370824459826456	0.06509332604933468	0.45898440405093716	-0.523903950866321	-0.23104065090278927	0.45296605254515776	-0.5805796606325268	-0.29808656000782946	0.24045482075701805	-0.7324452673476262	-0.27284952825386793	0.10890903151688791	-0.778335696737813	-0.2812348595916383	0.11241661204702244	-0.809536666066927	-0.3394849660457621	0.1864211426623842	-0.8165191270017176
208	3.5254237288135593	0.340515848032296	0.43054007511205034	0.04413540159175554	0.34919249267723357	0.6261544750869803	0.4712988051988563	0.38093604660019437	0.7977971605130569	0.8943685165294092	0.32236442071782995	0.6448699813617194	1.0072418765731044	0.3965202307583609	0.6492726283061023	0.9875113923591207	0.36749921758288373	0.9239651704600851	0.9711372869676921	0.13124735010571525	0.4998437772273548	0.045671850070142024	0.1644773016332037	0.6510176590487644	0.48288355463764326	0.163205722656782	0.809663134440469	0.8944632925256951	0.16046218343201837	0.6609061248650585	0.9953960093544924	0.11536802381720654	0.7181699284609608	0.9766265807149737	0.19557021643385122	0.8867615835302286	0.9395461449918665	0.2264362121023343	0.41603949781909555	-0.5701852792980022	0.22543923358001375	0.3107554560887701	-0.8063560494177292	0.201123443143601	0.27223948835026107	-0.6569790236322954	0.38582844690563495	0.3822100629063527	-0.5138652021982578	0.6536415474880453	0.241640176927794	-0.46968427058238127	0.6395545439384044	-0.014476782413067199	-0.6130646750684896	0.5811279034511145	-0.14440824223747212	-0.6740685386844072	0.620044617065523	-0.12438922345638231	-0.7067145659963783	0.6831728006976964	-0.07610718304163745	-0.7049728133874784	0.05349442695981864	0.4588078578504269	-0.5233837872672182	-0.23070423025579914	0.45799414659824617	-0.5580128786642771	-0.30673524801834656	0.2234488767300847	-0.6959297080393323	-0.2767805728962764	0.11308305148444729	-0.7341993445724904	-0.2961073371463983	0.127920008867877	-0.7722387246455734	-0.3499362039739894	0.14838874590984838	-0.7694986768225176
209	3.542372881355932	0.34057054494625294	0.4307632813303038	0.04420492450427125	0.3596172762884772	0.640816981302598	0.47385984012493365	0.38449466593847464	0.7963193318879724	0.889650376652535	0.3287904796170206	0.6610700501973432	1.0121988724272317	0.3993613796185982	0.6514337287737525	0.9874910173083794	0.3625554442732363	0.9122966560187526	0.966692204589163	0.13690312846143118	0.5143474137628581	0.05415082995395986	0.16134996923520414	0.6669899555636862	0.486280505660126	0.16322871478793677	0.809858349210654	0.8945076508143365	0.16312682095402178	0.6450491079318819	0.9895694240249044	0.1155536442349213	0.7186937123867392	0.9766330291375	0.19557394365170816	0.8869521545211112	0.9395279926319656	0.22625902967705686	0.4156446925292888	-0.5702385587973957	0.21663665353887035	0.2985889221987066	-0.8072243084431877	0.20098360701140147	0.27225994668325026	-0.6568458932578295	0.38784358144481296	0.3707395900847915	-0.5055089794504884	0.6499486246396654	0.21937583638739036	-0.4498190401718481	0.636828961436321	-0.03021107672812441	-0.5810631868971878	0.5933821076103787	-0.150152807490682	-0.6375201818190325	0.6125641728749585	-0.13134530839762712	-0.6474054399502795	0.6598748011125999	-0.1244929830527806	-0.6277004740292087	0.0532680690453364	0.4585976585075393	-0.5234286466735408	-0.23901456393663037	0.4782358390385882	-0.5273084996610259	-0.306371409914081	0.23103496874902718	-0.6581854814318435	-0.28595554850661986	0.09889883476870018	-0.6933267992809725	-0.29020581346165214	0.10772976435884586	-0.7175792670769415	-0.3542319234781572	0.12475489457125348	-0.7158902262630894
210	3.559322033898305	0.35544438359307345	0.45541621199704335	0.04527678493951397	0.3656905666910888	0.6547749386563895	0.47622471494102103	0.3859287595076416	0.7989118722911194	0.8948628980531759	0.3233846963848141	0.6436618596288078	1.0024761012036538	0.39760807776585977	0.6469587382057287	0.9869683143791946	0.3633260741624581	0.9220689817330415	0.9704402065283175	0.1408946678544417	0.5261694808155004	0.05111058400227979	0.16523957701105635	0.6679863131939522	0.48245922562124915	0.16315867858447652	0.8097843508387832	0.8946074187550918	0.16315123727936873	0.6449779356401222	0.9897727753671279	0.11542737077860804	0.71794961740782	0.976518946717765	0.19482963503823697	0.8850840373693369	0.9395444639862442	0.22392228794111826	0.42889379954082524	-0.5719169756538679	0.22037625022420818	0.29766505777678537	-0.8139198246165635	0.20063017488717108	0.2718216512487492	-0.6567416827765896	0.387894598083484	0.37100319993750996	-0.5054580458280203	0.6484830255303125	0.2031849351725908	-0.41380672758937725	0.6438918144663458	-0.03219655061974957	-0.5266784879799005	0.6010225500991189	-0.14156946821852723	-0.5721623928319448	0.6180669178558751	-0.12696839164343537	-0.576046610335136	0.6601320439844086	-0.11569621787362723	-0.5564115906247126	0.04884279072841217	0.4575986049724619	-0.5264260044424103	-0.2388857228423569	0.4805001315992245	-0.512812423442785	-0.3066219136141478	0.23753843249967524	-0.6145431349776482	-0.2882136642458105	0.10203811967169965	-0.6345835674814182	-0.3138370228681397	0.0833338306510567	-0.65291244667258	-0.36380958658070783	0.13493591963803472	-0.6521264860615519
211	3.5762711864406778	0.35362428484611624	0.46977016450573705	0.046106454012271314	0.36551554540915465	0.6555677272570724	0.4725235712561511	0.3858854897769375	0.7987311331861442	0.8948282199988963	0.32320028460087424	0.6466903193157592	1.007278890716378	0.39282782413967254	0.6355689597905131	0.9825800673195133	0.3635798011082628	0.9226934113812123	0.9704512684069027	0.13865215140464476	0.5426491514453086	0.05635796392288655	0.16531445935449504	0.668301828519202	0.4824676041185432	0.16316420473142884	0.8099561826657491	0.8945566534523561	0.1630789090986933	0.6449037907610051	0.9896072189034062	0.114793745961622	0.7200996197457294	0.980654576820792	0.19516865291414526	0.8860522738993157	0.939488685217916	0.22441793646470357	0.42983991138583605	-0.5679325186935521	0.22021204291017243	0.2974075033122494	-0.8140616433365367	0.19262328200624843	0.2620697303242747	-0.6478689840744611	0.38071335747678947	0.3742549465869886	-0.5054316927027356	0.6455934610529064	0.2371473586914349	-0.3877561059539384	0.6426500262749372	-0.015537091059629516	-0.48789885326955024	0.5949966885453387	-0.1456817100002093	-0.5340422243107937	0.6087810381828621	-0.13675510712577715	-0.5276726755774216	0.6505014916181929	-0.08646384025505066	-0.5034364898214152	0.04464220916140898	0.4456766192108945	-0.5213563249307832	-0.23435760422940782	0.48678279572267624	-0.4866970420594411	-0.30231753753284923	0.23841961648524612	-0.5655348873613799	-0.28559208782226636	0.09316840851882431	-0.5730247032192235	-0.30530901983983116	0.07411388911123089	-0.5925336506959128	-0.35997923786223585	0.13690778084915356	-0.5827176414931794
